<svg width="30" height="31" viewBox="0 0 30 31" fill="none" xmlns="http://www.w3.org/2000/svg">
<path d="M15 11.9345C14.2643 11.9345 13.545 12.1527 12.9333 12.5615C12.3215 12.9702 11.8447 13.5512 11.5632 14.231C11.2816 14.9107 11.2079 15.6587 11.3515 16.3803C11.495 17.1019 11.8493 17.7647 12.3696 18.285C12.8898 18.8052 13.5527 19.1595 14.2743 19.3031C14.9959 19.4466 15.7438 19.3729 16.4236 19.0914C17.1033 18.8098 17.6843 18.333 18.0931 17.7213C18.5018 17.1095 18.72 16.3903 18.72 15.6545C18.72 15.166 18.6238 14.6823 18.4368 14.231C18.2499 13.7796 17.9759 13.3695 17.6304 13.0241C17.285 12.6787 16.8749 12.4047 16.4236 12.2177C15.9723 12.0308 15.4885 11.9345 15 11.9345ZM29.895 8.25954C29.8871 7.10118 29.6738 5.9534 29.265 4.86954C28.9639 4.07643 28.4981 3.35618 27.8982 2.75632C27.2984 2.15646 26.5781 1.69062 25.785 1.38954C24.7011 0.980737 23.5534 0.767432 22.395 0.759541C20.46 0.654541 19.89 0.654541 15 0.654541C10.11 0.654541 9.54 0.654541 7.605 0.759541C6.44664 0.767432 5.29886 0.980737 4.215 1.38954C3.42189 1.69062 2.70164 2.15646 2.10178 2.75632C1.50192 3.35618 1.03608 4.07643 0.735 4.86954C0.326196 5.9534 0.112891 7.10118 0.105 8.25954C-1.00583e-07 10.1945 0 10.7645 0 15.6545C0 20.5445 -1.00583e-07 21.1145 0.105 23.0495C0.121146 24.212 0.334161 25.3633 0.735 26.4545C1.03474 27.244 1.50019 27.9601 2.1 28.5545C2.69729 29.158 3.41908 29.6238 4.215 29.9195C5.29886 30.3283 6.44664 30.5417 7.605 30.5495C9.54 30.6545 10.11 30.6545 15 30.6545C19.89 30.6545 20.46 30.6545 22.395 30.5495C23.5534 30.5417 24.7011 30.3283 25.785 29.9195C26.5809 29.6238 27.3027 29.158 27.9 28.5545C28.4998 27.9601 28.9653 27.244 29.265 26.4545C29.6734 25.3654 29.8867 24.2127 29.895 23.0495C30 21.1145 30 20.5445 30 15.6545C30 10.7645 30 10.1945 29.895 8.25954ZM26.085 20.2595C26.0369 21.1852 25.8393 22.097 25.5 22.9595C25.2088 23.6791 24.7759 24.3327 24.227 24.8816C23.6782 25.4304 23.0245 25.8633 22.305 26.1545C21.4343 26.4749 20.5174 26.6522 19.59 26.6795H10.41C9.4826 26.6522 8.56573 26.4749 7.695 26.1545C6.95115 25.8781 6.27942 25.4371 5.73 24.8645C5.1865 24.3264 4.76677 23.6763 4.5 22.9595C4.17834 22.0897 4.00591 21.1718 3.99 20.2445V11.0645C4.00591 10.1373 4.17834 9.21937 4.5 8.34954C4.77642 7.6057 5.21741 6.93396 5.79 6.38454C6.3305 5.84398 6.9799 5.42468 7.695 5.15454C8.56573 4.83415 9.4826 4.65686 10.41 4.62954H19.59C20.5174 4.65686 21.4343 4.83415 22.305 5.15454C23.0488 5.43096 23.7206 5.87195 24.27 6.44454C24.8135 6.98266 25.2332 7.63274 25.5 8.34954C25.8204 9.22027 25.9977 10.1371 26.025 11.0645V15.6545C26.025 18.7445 26.13 19.0595 26.085 20.2445V20.2595ZM23.685 9.09954C23.5064 8.61502 23.2248 8.175 22.8597 7.80986C22.4945 7.44472 22.0545 7.16314 21.57 6.98454C20.9047 6.75393 20.204 6.64223 19.5 6.65454H10.5C9.7924 6.66146 9.0916 6.79349 8.43 7.04454C7.95289 7.21503 7.51754 7.48511 7.15288 7.83684C6.78821 8.18857 6.50259 8.6139 6.315 9.08454C6.09717 9.75259 5.99074 10.4519 6 11.1545V20.1545C6.01487 20.8613 6.14665 21.5608 6.39 22.2245C6.5686 22.7091 6.85018 23.1491 7.21532 23.5142C7.58046 23.8794 8.02048 24.1609 8.505 24.3395C9.145 24.5749 9.81848 24.7066 10.5 24.7295H19.5C20.2076 24.7226 20.9084 24.5906 21.57 24.3395C22.0545 24.1609 22.4945 23.8794 22.8597 23.5142C23.2248 23.1491 23.5064 22.7091 23.685 22.2245C23.9361 21.5629 24.0681 20.8621 24.075 20.1545V11.1545C24.0754 10.4462 23.9432 9.74412 23.685 9.08454V9.09954ZM15 21.3845C14.2482 21.3845 13.5038 21.2362 12.8095 20.9481C12.1151 20.6599 11.4845 20.2376 10.9536 19.7054C10.4227 19.1731 10.002 18.5413 9.71572 17.8462C9.42939 17.1511 9.28303 16.4063 9.285 15.6545C9.285 14.5206 9.62144 13.4122 10.2517 12.4696C10.882 11.527 11.7778 10.7925 12.8257 10.3593C13.8736 9.92605 15.0265 9.81345 16.1384 10.0358C17.2503 10.2581 18.2713 10.8053 19.072 11.6082C19.8728 12.411 20.4173 13.4334 20.6367 14.5459C20.8561 15.6584 20.7405 16.811 20.3045 17.8577C19.8685 18.9045 19.1318 19.7983 18.1875 20.4262C17.2432 21.054 16.1339 21.3875 15 21.3845ZM21 11.0495C20.6684 11.0144 20.3615 10.8579 20.1385 10.61C19.9155 10.3621 19.7921 10.0405 19.7921 9.70704C19.7921 9.3736 19.9155 9.05196 20.1385 8.80409C20.3615 8.55621 20.6684 8.39964 21 8.36454C21.3316 8.39964 21.6385 8.55621 21.8615 8.80409C22.0845 9.05196 22.2079 9.3736 22.2079 9.70704C22.2079 10.0405 22.0845 10.3621 21.8615 10.61C21.6385 10.8579 21.3316 11.0144 21 11.0495Z" fill="#E64A33"/>
</svg>
