<svg width="28" height="28" viewBox="0 0 28 28" fill="none" xmlns="http://www.w3.org/2000/svg">
<path fill-rule="evenodd" clip-rule="evenodd" d="M23 0.154541C24.1935 0.154541 25.3381 0.628647 26.182 1.47256C27.0259 2.31647 27.5 3.46107 27.5 4.65454V22.6545C27.5 23.848 27.0259 24.9926 26.182 25.8365C25.3381 26.6804 24.1935 27.1545 23 27.1545H5C3.80653 27.1545 2.66193 26.6804 1.81802 25.8365C0.974106 24.9926 0.5 23.848 0.5 22.6545V4.65454C0.5 3.46107 0.974106 2.31647 1.81802 1.47256C2.66193 0.628647 3.80653 0.154541 5 0.154541H23ZM8 10.6545C7.60217 10.6545 7.22064 10.8126 6.93934 11.0939C6.65804 11.3752 6.5 11.7567 6.5 12.1545V19.6545C6.5 20.0524 6.65804 20.4339 6.93934 20.7152C7.22064 20.9965 7.60217 21.1545 8 21.1545C8.39782 21.1545 8.77936 20.9965 9.06066 20.7152C9.34196 20.4339 9.5 20.0524 9.5 19.6545V12.1545C9.5 11.7567 9.34196 11.3752 9.06066 11.0939C8.77936 10.8126 8.39782 10.6545 8 10.6545ZM12.5 9.15454C12.1022 9.15454 11.7206 9.31258 11.4393 9.59388C11.158 9.87519 11 10.2567 11 10.6545V19.6545C11 20.0524 11.158 20.4339 11.4393 20.7152C11.7206 20.9965 12.1022 21.1545 12.5 21.1545C12.8978 21.1545 13.2794 20.9965 13.5607 20.7152C13.842 20.4339 14 20.0524 14 19.6545V14.1645C14.4575 13.6485 15.23 13.0425 16.0895 12.675C16.589 12.462 17.3405 12.375 17.8625 12.54C18.0357 12.584 18.1899 12.6829 18.302 12.822C18.38 12.927 18.5 13.161 18.5 13.6545V19.6545C18.5 20.0524 18.658 20.4339 18.9393 20.7152C19.2206 20.9965 19.6022 21.1545 20 21.1545C20.3978 21.1545 20.7794 20.9965 21.0607 20.7152C21.342 20.4339 21.5 20.0524 21.5 19.6545V13.6545C21.5 12.6495 21.245 11.7555 20.714 11.0385C20.2254 10.3884 19.5415 9.91163 18.7625 9.67804C17.4095 9.25354 15.911 9.48904 14.9105 9.91804C14.5899 10.0552 14.2779 10.2115 13.976 10.386C13.9131 10.0404 13.7309 9.72784 13.4612 9.50278C13.1915 9.27773 12.8513 9.15449 12.5 9.15454ZM8 6.15454C7.60217 6.15454 7.22064 6.31258 6.93934 6.59388C6.65804 6.87519 6.5 7.25672 6.5 7.65454C6.5 8.05237 6.65804 8.4339 6.93934 8.7152C7.22064 8.9965 7.60217 9.15454 8 9.15454C8.39782 9.15454 8.77936 8.9965 9.06066 8.7152C9.34196 8.4339 9.5 8.05237 9.5 7.65454C9.5 7.25672 9.34196 6.87519 9.06066 6.59388C8.77936 6.31258 8.39782 6.15454 8 6.15454Z" fill="#E64A33"/>
</svg>
