<svg width="31" height="31" viewBox="0 0 31 31" fill="none" xmlns="http://www.w3.org/2000/svg">
<path d="M17.0581 0.795682C13.4703 0.304062 9.82569 1.1266 6.79681 3.11154C3.76792 5.09648 1.55911 8.10988 0.577894 11.5958C-0.40332 15.0816 -0.090722 18.8048 1.45801 22.0782C3.00675 25.3517 5.68711 27.9546 9.00457 29.4067C8.91443 28.255 8.99633 27.0963 9.24757 25.9687C9.52507 24.7102 11.1916 17.7742 11.1916 17.7742C10.8597 17.0303 10.6938 16.2231 10.7056 15.4087C10.7056 13.1812 11.9911 11.5192 13.5901 11.5192C13.8773 11.515 14.1621 11.5727 14.4251 11.6884C14.688 11.8041 14.923 11.9751 15.114 12.1897C15.305 12.4043 15.4475 12.6576 15.5319 12.9322C15.6163 13.2068 15.6406 13.4964 15.6031 13.7812C15.6031 15.1312 14.7361 17.1742 14.2831 19.0912C14.1935 19.4428 14.1879 19.8104 14.2665 20.1646C14.3451 20.5188 14.5058 20.8495 14.7357 21.1302C14.9656 21.4109 15.2582 21.6336 15.5899 21.7805C15.9217 21.9273 16.2833 21.9942 16.6456 21.9757C19.4911 21.9757 21.4006 18.3292 21.4006 14.0242C21.4006 10.7227 19.2151 8.25368 15.1861 8.25368C14.2223 8.21623 13.2609 8.37503 12.3603 8.72043C11.4598 9.06584 10.6388 9.59064 9.9472 10.263C9.25562 10.9354 8.70789 11.7412 8.33725 12.6317C7.96661 13.5222 7.78079 14.4787 7.79107 15.4432C7.74812 16.5132 8.09333 17.5626 8.76307 18.3982C8.88822 18.4916 8.9796 18.6232 9.02343 18.7731C9.06727 18.923 9.06117 19.0831 9.00607 19.2292C8.93707 19.5052 8.76307 20.1637 8.69407 20.4067C8.67952 20.4884 8.64599 20.5657 8.59618 20.6321C8.54637 20.6986 8.48166 20.7524 8.40726 20.7893C8.33286 20.8262 8.25084 20.8452 8.16779 20.8446C8.08474 20.8441 8.00298 20.8241 7.92907 20.7862C5.85307 19.9552 4.87507 17.6707 4.87507 15.0622C4.87507 10.7917 8.45107 5.67968 15.6061 5.67968C21.3001 5.67968 25.0846 9.84518 25.0846 14.3002C25.0846 20.1637 21.8206 24.5722 16.9951 24.5722C16.2739 24.5952 15.5585 24.4361 14.9151 24.1094C14.2717 23.7827 13.721 23.2991 13.3141 22.7032C13.3141 22.7032 12.4456 26.1772 12.2761 26.8342C11.927 27.9692 11.412 29.0464 10.7476 30.0307C12.1321 30.4507 13.5706 30.6607 15.0166 30.6547C16.9868 30.6563 18.938 30.2692 20.7585 29.5157C22.5789 28.7622 24.2329 27.657 25.6256 26.2634C27.0184 24.8698 28.1226 23.2152 28.875 21.3943C29.6275 19.5734 30.0133 17.6219 30.0106 15.6517C30.0091 12.0289 28.6968 8.52905 26.316 5.79842C23.9352 3.06778 20.6468 1.29081 17.0581 0.795682Z" fill="#E64A33"/>
</svg>
