<svg width="30" height="31" viewBox="0 0 30 31" fill="none" xmlns="http://www.w3.org/2000/svg">
<path d="M15 0.689453C23.2929 0.689453 30 7.38095 30 15.6545C30 23.928 23.2929 30.6195 15 30.6195C6.70714 30.6195 0 23.928 0 15.6545C0 7.38095 6.70714 0.689453 15 0.689453ZM12.2571 23.5431C18.9 23.5431 22.5429 18.0489 22.5429 13.2814V12.8111C23.25 12.298 23.8714 11.6567 24.3429 10.9298C23.7 11.2077 22.9929 11.4001 22.2643 11.507C23.0143 11.0581 23.5929 10.3526 23.85 9.5188C23.1429 9.925 22.3714 10.2243 21.5571 10.3953C20.8929 9.68983 19.95 9.26226 18.9214 9.26226C16.9286 9.26226 15.3 10.887 15.3 12.8752C15.3 13.1532 15.3214 13.4311 15.4071 13.6876C12.4071 13.538 9.72857 12.1056 7.95 9.925C7.65 10.4595 7.45714 11.0794 7.45714 11.7422C7.45714 12.9821 8.1 14.0938 9.06429 14.7352C8.46429 14.7352 7.90714 14.5641 7.43571 14.2862V14.329C7.43571 16.082 8.67857 17.5358 10.3286 17.8778C10.0286 17.9633 9.70714 18.0061 9.38571 18.0061C9.15 18.0061 8.93571 17.9847 8.7 17.942C9.15 19.3743 10.5 20.4219 12.0643 20.4433C10.8214 21.4053 9.25714 21.9825 7.56429 21.9825C7.26429 21.9825 6.98571 21.9825 6.70714 21.9398C8.29286 22.9659 10.2 23.5645 12.2357 23.5645" fill="#E64A33"/>
</svg>
